<?xml version="1.0" encoding="UTF-8" standalone="no"?>
<!DOCTYPE svg PUBLIC "-//W3C//DTD SVG 1.1//EN"
 "http://www.w3.org/Graphics/SVG/1.1/DTD/svg11.dtd">
<!-- Generated by graphviz version 3.0.0 (20220226.1711)
 -->
<!-- Title: dependencies Pages: 1 -->
<svg width="502pt" height="174pt"
 viewBox="0.00 0.00 502.00 173.80" xmlns="http://www.w3.org/2000/svg" xmlns:xlink="http://www.w3.org/1999/xlink">
<g id="graph0" class="graph" transform="scale(1 1) rotate(0) translate(4 169.8)">
<title>dependencies</title>
<polygon fill="white" stroke="transparent" points="-4,4 -4,-169.8 498,-169.8 498,4 -4,4"/>
<text text-anchor="middle" x="247" y="-8.2" font-family="sans-serif" font-size="14.00">dependencies</text>
<g id="clust1" class="cluster">
<title>cluster_StatisticsPageModule</title>
<polygon fill="none" stroke="black" stroke-dasharray="1,5" points="8,-32.8 8,-157.8 486,-157.8 486,-32.8 8,-32.8"/>
</g>
<g id="clust5" class="cluster">
<title>cluster_StatisticsPageModule_imports</title>
<polygon fill="none" stroke="black" points="280,-40.8 280,-92.8 478,-92.8 478,-40.8 280,-40.8"/>
</g>
<g id="clust2" class="cluster">
<title>cluster_StatisticsPageModule_declarations</title>
<polygon fill="none" stroke="black" points="16,-40.8 16,-92.8 272,-92.8 272,-40.8 16,-40.8"/>
</g>
<!-- LoadingComponent -->
<g id="node1" class="node">
<title>LoadingComponent</title>
<polygon fill="#ffffb3" stroke="black" points="263.99,-84.8 136.01,-84.8 136.01,-48.8 263.99,-48.8 263.99,-84.8"/>
<text text-anchor="middle" x="200" y="-62.6" font-family="Times,serif" font-size="14.00">LoadingComponent</text>
</g>
<!-- StatisticsPageModule -->
<g id="node3" class="node">
<title>StatisticsPageModule</title>
<polygon fill="#8dd3c7" stroke="black" points="268.82,-149.8 265.82,-153.8 244.82,-153.8 241.82,-149.8 131.18,-149.8 131.18,-113.8 268.82,-113.8 268.82,-149.8"/>
<text text-anchor="middle" x="200" y="-127.6" font-family="Times,serif" font-size="14.00">StatisticsPageModule</text>
</g>
<!-- LoadingComponent&#45;&gt;StatisticsPageModule -->
<g id="edge1" class="edge">
<title>LoadingComponent&#45;&gt;StatisticsPageModule</title>
<path fill="none" stroke="black" d="M200,-84.91C200,-84.91 200,-103.79 200,-103.79"/>
<polygon fill="black" stroke="black" points="196.5,-103.79 200,-113.79 203.5,-103.79 196.5,-103.79"/>
</g>
<!-- StatisticsPage -->
<g id="node2" class="node">
<title>StatisticsPage</title>
<polygon fill="#ffffb3" stroke="black" points="117.77,-84.8 24.23,-84.8 24.23,-48.8 117.77,-48.8 117.77,-84.8"/>
<text text-anchor="middle" x="71" y="-62.6" font-family="Times,serif" font-size="14.00">StatisticsPage</text>
</g>
<!-- StatisticsPage&#45;&gt;StatisticsPageModule -->
<g id="edge2" class="edge">
<title>StatisticsPage&#45;&gt;StatisticsPageModule</title>
<path fill="none" stroke="black" d="M71,-84.91C71,-104.14 71,-131.8 71,-131.8 71,-131.8 120.97,-131.8 120.97,-131.8"/>
<polygon fill="black" stroke="black" points="120.97,-135.3 130.97,-131.8 120.97,-128.3 120.97,-135.3"/>
</g>
<!-- StatisticsPageRoutingModule -->
<g id="node4" class="node">
<title>StatisticsPageRoutingModule</title>
<polygon fill="#8dd3c7" stroke="black" points="470.44,-84.8 467.44,-88.8 446.44,-88.8 443.44,-84.8 287.56,-84.8 287.56,-48.8 470.44,-48.8 470.44,-84.8"/>
<text text-anchor="middle" x="379" y="-62.6" font-family="Times,serif" font-size="14.00">StatisticsPageRoutingModule</text>
</g>
<!-- StatisticsPageRoutingModule&#45;&gt;StatisticsPageModule -->
<g id="edge3" class="edge">
<title>StatisticsPageRoutingModule&#45;&gt;StatisticsPageModule</title>
<path fill="none" stroke="black" d="M379,-84.91C379,-104.14 379,-131.8 379,-131.8 379,-131.8 278.69,-131.8 278.69,-131.8"/>
<polygon fill="black" stroke="black" points="278.69,-128.3 268.69,-131.8 278.69,-135.3 278.69,-128.3"/>
</g>
</g>
</svg>
