<?xml version="1.0" encoding="UTF-8" standalone="no"?>
<!DOCTYPE svg PUBLIC "-//W3C//DTD SVG 1.1//EN"
 "http://www.w3.org/Graphics/SVG/1.1/DTD/svg11.dtd">
<!-- Generated by graphviz version 3.0.0 (20220226.1711)
 -->
<!-- Title: dependencies Pages: 1 -->
<svg width="596pt" height="174pt"
 viewBox="0.00 0.00 596.00 173.80" xmlns="http://www.w3.org/2000/svg" xmlns:xlink="http://www.w3.org/1999/xlink">
<g id="graph0" class="graph" transform="scale(1 1) rotate(0) translate(4 169.8)">
<title>dependencies</title>
<polygon fill="white" stroke="transparent" points="-4,4 -4,-169.8 592,-169.8 592,4 -4,4"/>
<text text-anchor="middle" x="294" y="-8.2" font-family="sans-serif" font-size="14.00">dependencies</text>
<g id="clust1" class="cluster">
<title>cluster_ViewConfermentPageModule</title>
<polygon fill="none" stroke="black" stroke-dasharray="1,5" points="8,-32.8 8,-157.8 580,-157.8 580,-32.8 8,-32.8"/>
</g>
<g id="clust5" class="cluster">
<title>cluster_ViewConfermentPageModule_imports</title>
<polygon fill="none" stroke="black" points="326,-40.8 326,-92.8 572,-92.8 572,-40.8 326,-40.8"/>
</g>
<g id="clust2" class="cluster">
<title>cluster_ViewConfermentPageModule_declarations</title>
<polygon fill="none" stroke="black" points="16,-40.8 16,-92.8 318,-92.8 318,-40.8 16,-40.8"/>
</g>
<!-- LoadingComponent -->
<g id="node1" class="node">
<title>LoadingComponent</title>
<polygon fill="#ffffb3" stroke="black" points="309.99,-84.8 182.01,-84.8 182.01,-48.8 309.99,-48.8 309.99,-84.8"/>
<text text-anchor="middle" x="246" y="-62.6" font-family="Times,serif" font-size="14.00">LoadingComponent</text>
</g>
<!-- ViewConfermentPageModule -->
<g id="node3" class="node">
<title>ViewConfermentPageModule</title>
<polygon fill="#8dd3c7" stroke="black" points="337.96,-149.8 334.96,-153.8 313.96,-153.8 310.96,-149.8 154.04,-149.8 154.04,-113.8 337.96,-113.8 337.96,-149.8"/>
<text text-anchor="middle" x="246" y="-127.6" font-family="Times,serif" font-size="14.00">ViewConfermentPageModule</text>
</g>
<!-- LoadingComponent&#45;&gt;ViewConfermentPageModule -->
<g id="edge1" class="edge">
<title>LoadingComponent&#45;&gt;ViewConfermentPageModule</title>
<path fill="none" stroke="black" d="M246,-84.91C246,-84.91 246,-103.79 246,-103.79"/>
<polygon fill="black" stroke="black" points="242.5,-103.79 246,-113.79 249.5,-103.79 242.5,-103.79"/>
</g>
<!-- ViewConfermentPage -->
<g id="node2" class="node">
<title>ViewConfermentPage</title>
<polygon fill="#ffffb3" stroke="black" points="164.41,-84.8 23.59,-84.8 23.59,-48.8 164.41,-48.8 164.41,-84.8"/>
<text text-anchor="middle" x="94" y="-62.6" font-family="Times,serif" font-size="14.00">ViewConfermentPage</text>
</g>
<!-- ViewConfermentPage&#45;&gt;ViewConfermentPageModule -->
<g id="edge2" class="edge">
<title>ViewConfermentPage&#45;&gt;ViewConfermentPageModule</title>
<path fill="none" stroke="black" d="M159.11,-84.91C159.11,-84.91 159.11,-103.79 159.11,-103.79"/>
<polygon fill="black" stroke="black" points="155.61,-103.79 159.11,-113.79 162.61,-103.79 155.61,-103.79"/>
</g>
<!-- ViewConfermentPageRoutingModule -->
<g id="node4" class="node">
<title>ViewConfermentPageRoutingModule</title>
<polygon fill="#8dd3c7" stroke="black" points="563.58,-84.8 560.58,-88.8 539.58,-88.8 536.58,-84.8 334.42,-84.8 334.42,-48.8 563.58,-48.8 563.58,-84.8"/>
<text text-anchor="middle" x="449" y="-62.6" font-family="Times,serif" font-size="14.00">ViewConfermentPageRoutingModule</text>
</g>
<!-- ViewConfermentPageRoutingModule&#45;&gt;ViewConfermentPageModule -->
<g id="edge3" class="edge">
<title>ViewConfermentPageRoutingModule&#45;&gt;ViewConfermentPageModule</title>
<path fill="none" stroke="black" d="M334.38,-66.8C326.87,-66.8 322.23,-66.8 322.23,-66.8 322.23,-66.8 322.23,-103.69 322.23,-103.69"/>
<polygon fill="black" stroke="black" points="318.73,-103.69 322.23,-113.69 325.73,-103.69 318.73,-103.69"/>
</g>
</g>
</svg>
