<?xml version="1.0" encoding="UTF-8" standalone="no"?>
<!DOCTYPE svg PUBLIC "-//W3C//DTD SVG 1.1//EN"
 "http://www.w3.org/Graphics/SVG/1.1/DTD/svg11.dtd">
<!-- Generated by graphviz version 3.0.0 (20220226.1711)
 -->
<!-- Title: dependencies Pages: 1 -->
<svg width="458pt" height="174pt"
 viewBox="0.00 0.00 458.00 173.80" xmlns="http://www.w3.org/2000/svg" xmlns:xlink="http://www.w3.org/1999/xlink">
<g id="graph0" class="graph" transform="scale(1 1) rotate(0) translate(4 169.8)">
<title>dependencies</title>
<polygon fill="white" stroke="transparent" points="-4,4 -4,-169.8 454,-169.8 454,4 -4,4"/>
<text text-anchor="middle" x="225" y="-8.2" font-family="sans-serif" font-size="14.00">dependencies</text>
<g id="clust1" class="cluster">
<title>cluster_LoadPageModule</title>
<polygon fill="none" stroke="black" stroke-dasharray="1,5" points="8,-32.8 8,-157.8 442,-157.8 442,-32.8 8,-32.8"/>
</g>
<g id="clust2" class="cluster">
<title>cluster_LoadPageModule_declarations</title>
<polygon fill="none" stroke="black" points="200,-40.8 200,-92.8 434,-92.8 434,-40.8 200,-40.8"/>
</g>
<g id="clust5" class="cluster">
<title>cluster_LoadPageModule_imports</title>
<polygon fill="none" stroke="black" points="16,-40.8 16,-92.8 192,-92.8 192,-40.8 16,-40.8"/>
</g>
<!-- LoadPage -->
<g id="node1" class="node">
<title>LoadPage</title>
<polygon fill="#ffffb3" stroke="black" points="425.98,-84.8 354.02,-84.8 354.02,-48.8 425.98,-48.8 425.98,-84.8"/>
<text text-anchor="middle" x="390" y="-62.6" font-family="Times,serif" font-size="14.00">LoadPage</text>
</g>
<!-- LoadPageModule -->
<g id="node3" class="node">
<title>LoadPageModule</title>
<polygon fill="#8dd3c7" stroke="black" points="329.53,-149.8 326.53,-153.8 305.53,-153.8 302.53,-149.8 214.47,-149.8 214.47,-113.8 329.53,-113.8 329.53,-149.8"/>
<text text-anchor="middle" x="272" y="-127.6" font-family="Times,serif" font-size="14.00">LoadPageModule</text>
</g>
<!-- LoadPage&#45;&gt;LoadPageModule -->
<g id="edge1" class="edge">
<title>LoadPage&#45;&gt;LoadPageModule</title>
<path fill="none" stroke="black" d="M390,-84.91C390,-104.14 390,-131.8 390,-131.8 390,-131.8 339.62,-131.8 339.62,-131.8"/>
<polygon fill="black" stroke="black" points="339.62,-128.3 329.62,-131.8 339.62,-135.3 339.62,-128.3"/>
</g>
<!-- LoadingComponent -->
<g id="node2" class="node">
<title>LoadingComponent</title>
<polygon fill="#ffffb3" stroke="black" points="335.99,-84.8 208.01,-84.8 208.01,-48.8 335.99,-48.8 335.99,-84.8"/>
<text text-anchor="middle" x="272" y="-62.6" font-family="Times,serif" font-size="14.00">LoadingComponent</text>
</g>
<!-- LoadingComponent&#45;&gt;LoadPageModule -->
<g id="edge2" class="edge">
<title>LoadingComponent&#45;&gt;LoadPageModule</title>
<path fill="none" stroke="black" d="M272,-84.91C272,-84.91 272,-103.79 272,-103.79"/>
<polygon fill="black" stroke="black" points="268.5,-103.79 272,-113.79 275.5,-103.79 268.5,-103.79"/>
</g>
<!-- LoadPageRoutingModule -->
<g id="node4" class="node">
<title>LoadPageRoutingModule</title>
<polygon fill="#8dd3c7" stroke="black" points="184.15,-84.8 181.15,-88.8 160.15,-88.8 157.15,-84.8 23.85,-84.8 23.85,-48.8 184.15,-48.8 184.15,-84.8"/>
<text text-anchor="middle" x="104" y="-62.6" font-family="Times,serif" font-size="14.00">LoadPageRoutingModule</text>
</g>
<!-- LoadPageRoutingModule&#45;&gt;LoadPageModule -->
<g id="edge3" class="edge">
<title>LoadPageRoutingModule&#45;&gt;LoadPageModule</title>
<path fill="none" stroke="black" d="M104,-84.91C104,-104.14 104,-131.8 104,-131.8 104,-131.8 204.18,-131.8 204.18,-131.8"/>
<polygon fill="black" stroke="black" points="204.18,-135.3 214.18,-131.8 204.18,-128.3 204.18,-135.3"/>
</g>
</g>
</svg>
