<svg class="svg-icon" style="width: 1em; height: 1em;vertical-align: middle;fill: currentColor;overflow: hidden;" viewBox="0 0 1024 1024" version="1.1" xmlns="http://www.w3.org/2000/svg"><path d="M750.933333 631.466667c-3.413333 0-6.826667 0-10.24-3.413334-6.826667-6.826667-10.24-17.066667-3.413333-23.893333l211.626667-276.48C822.613333 235.52 672.426667 187.733333 512 187.733333c-71.68 0-150.186667 10.24-208.213333 23.893334-10.24 3.413333-17.066667-3.413333-20.48-10.24-3.413333-10.24 3.413333-20.48 10.24-20.48 61.44-17.066667 143.36-27.306667 218.453333-27.306667 174.08 0 334.506667 54.613333 471.04 157.013333 3.413333 3.413333 6.826667 6.826667 6.826667 10.24 0 3.413333 0 10.24-3.413334 13.653334l-221.866666 290.133333c-3.413333 3.413333-6.826667 6.826667-13.653334 6.826667zM512 938.666667c-6.826667 0-10.24-3.413333-13.653333-6.826667L20.48 334.506667c-3.413333-3.413333-3.413333-6.826667-3.413333-13.653334s3.413333-10.24 6.826666-10.24C85.333333 262.826667 163.84 228.693333 215.04 204.8c10.24-3.413333 17.066667 0 23.893333 10.24 3.413333 10.24 0 20.48-10.24 23.893333-47.786667 20.48-112.64 51.2-170.666666 88.746667L512 894.293333l163.84-215.04c6.826667-6.826667 17.066667-10.24 23.893333-3.413333 6.826667 6.826667 10.24 17.066667 3.413334 23.893333l-174.08 235.52c-6.826667 0-10.24 3.413333-17.066667 3.413334z" fill="" /><path d="M989.866667 1006.933333c-3.413333 0-10.24 0-13.653334-3.413333l-955.733333-955.733333C13.653333 40.96 13.653333 30.72 20.48 23.893333s17.066667-6.826667 23.893333 0l955.733334 955.733334c6.826667 6.826667 6.826667 17.066667 0 23.893333 0 3.413333-6.826667 3.413333-10.24 3.413333z" fill="" /></svg>