<?xml version="1.0" encoding="UTF-8" standalone="no"?>
<!DOCTYPE svg PUBLIC "-//W3C//DTD SVG 1.1//EN"
 "http://www.w3.org/Graphics/SVG/1.1/DTD/svg11.dtd">
<!-- Generated by graphviz version 3.0.0 (20220226.1711)
 -->
<!-- Title: dependencies Pages: 1 -->
<svg width="649pt" height="174pt"
 viewBox="0.00 0.00 649.00 173.80" xmlns="http://www.w3.org/2000/svg" xmlns:xlink="http://www.w3.org/1999/xlink">
<g id="graph0" class="graph" transform="scale(1 1) rotate(0) translate(4 169.8)">
<title>dependencies</title>
<polygon fill="white" stroke="transparent" points="-4,4 -4,-169.8 645,-169.8 645,4 -4,4"/>
<text text-anchor="middle" x="320.5" y="-8.2" font-family="sans-serif" font-size="14.00">dependencies</text>
<g id="clust1" class="cluster">
<title>cluster_LoginPageModule</title>
<polygon fill="none" stroke="black" stroke-dasharray="1,5" points="8,-32.8 8,-157.8 633,-157.8 633,-32.8 8,-32.8"/>
</g>
<g id="clust2" class="cluster">
<title>cluster_LoginPageModule_declarations</title>
<polygon fill="none" stroke="black" points="206,-40.8 206,-92.8 625,-92.8 625,-40.8 206,-40.8"/>
</g>
<g id="clust6" class="cluster">
<title>cluster_LoginPageModule_imports</title>
<polygon fill="none" stroke="black" points="16,-40.8 16,-92.8 198,-92.8 198,-40.8 16,-40.8"/>
</g>
<!-- LoadingComponent -->
<g id="node1" class="node">
<title>LoadingComponent</title>
<polygon fill="#ffffb3" stroke="black" points="616.99,-84.8 489.01,-84.8 489.01,-48.8 616.99,-48.8 616.99,-84.8"/>
<text text-anchor="middle" x="553" y="-62.6" font-family="Times,serif" font-size="14.00">LoadingComponent</text>
</g>
<!-- LoginPageModule -->
<g id="node4" class="node">
<title>LoginPageModule</title>
<polygon fill="#8dd3c7" stroke="black" points="424.21,-149.8 421.21,-153.8 400.21,-153.8 397.21,-149.8 303.79,-149.8 303.79,-113.8 424.21,-113.8 424.21,-149.8"/>
<text text-anchor="middle" x="364" y="-127.6" font-family="Times,serif" font-size="14.00">LoginPageModule</text>
</g>
<!-- LoadingComponent&#45;&gt;LoginPageModule -->
<g id="edge1" class="edge">
<title>LoadingComponent&#45;&gt;LoginPageModule</title>
<path fill="none" stroke="black" d="M553,-84.91C553,-104.14 553,-131.8 553,-131.8 553,-131.8 434.32,-131.8 434.32,-131.8"/>
<polygon fill="black" stroke="black" points="434.32,-128.3 424.32,-131.8 434.32,-135.3 434.32,-128.3"/>
</g>
<!-- LoginPage -->
<g id="node2" class="node">
<title>LoginPage</title>
<polygon fill="#ffffb3" stroke="black" points="471.16,-84.8 394.84,-84.8 394.84,-48.8 471.16,-48.8 471.16,-84.8"/>
<text text-anchor="middle" x="433" y="-62.6" font-family="Times,serif" font-size="14.00">LoginPage</text>
</g>
<!-- LoginPage&#45;&gt;LoginPageModule -->
<g id="edge2" class="edge">
<title>LoginPage&#45;&gt;LoginPageModule</title>
<path fill="none" stroke="black" d="M409.39,-84.91C409.39,-84.91 409.39,-103.79 409.39,-103.79"/>
<polygon fill="black" stroke="black" points="405.89,-103.79 409.39,-113.79 412.89,-103.79 405.89,-103.79"/>
</g>
<!-- NoConnectionComponent -->
<g id="node3" class="node">
<title>NoConnectionComponent</title>
<polygon fill="#ffffb3" stroke="black" points="376.49,-84.8 213.51,-84.8 213.51,-48.8 376.49,-48.8 376.49,-84.8"/>
<text text-anchor="middle" x="295" y="-62.6" font-family="Times,serif" font-size="14.00">NoConnectionComponent</text>
</g>
<!-- NoConnectionComponent&#45;&gt;LoginPageModule -->
<g id="edge3" class="edge">
<title>NoConnectionComponent&#45;&gt;LoginPageModule</title>
<path fill="none" stroke="black" d="M340.19,-84.91C340.19,-84.91 340.19,-103.79 340.19,-103.79"/>
<polygon fill="black" stroke="black" points="336.69,-103.79 340.19,-113.79 343.69,-103.79 336.69,-103.79"/>
</g>
<!-- LoginPageRoutingModule -->
<g id="node5" class="node">
<title>LoginPageRoutingModule</title>
<polygon fill="#8dd3c7" stroke="black" points="189.82,-84.8 186.82,-88.8 165.82,-88.8 162.82,-84.8 24.18,-84.8 24.18,-48.8 189.82,-48.8 189.82,-84.8"/>
<text text-anchor="middle" x="107" y="-62.6" font-family="Times,serif" font-size="14.00">LoginPageRoutingModule</text>
</g>
<!-- LoginPageRoutingModule&#45;&gt;LoginPageModule -->
<g id="edge4" class="edge">
<title>LoginPageRoutingModule&#45;&gt;LoginPageModule</title>
<path fill="none" stroke="black" d="M107,-84.91C107,-104.14 107,-131.8 107,-131.8 107,-131.8 293.74,-131.8 293.74,-131.8"/>
<polygon fill="black" stroke="black" points="293.74,-135.3 303.74,-131.8 293.74,-128.3 293.74,-135.3"/>
</g>
</g>
</svg>
