<?xml version="1.0" encoding="UTF-8" standalone="no"?>
<!DOCTYPE svg PUBLIC "-//W3C//DTD SVG 1.1//EN"
 "http://www.w3.org/Graphics/SVG/1.1/DTD/svg11.dtd">
<!-- Generated by graphviz version 3.0.0 (20220226.1711)
 -->
<!-- Title: dependencies Pages: 1 -->
<svg width="360pt" height="174pt"
 viewBox="0.00 0.00 360.00 173.80" xmlns="http://www.w3.org/2000/svg" xmlns:xlink="http://www.w3.org/1999/xlink">
<g id="graph0" class="graph" transform="scale(1 1) rotate(0) translate(4 169.8)">
<title>dependencies</title>
<polygon fill="white" stroke="transparent" points="-4,4 -4,-169.8 356,-169.8 356,4 -4,4"/>
<text text-anchor="middle" x="176" y="-8.2" font-family="sans-serif" font-size="14.00">dependencies</text>
<g id="clust1" class="cluster">
<title>cluster_SuppliersPageModule</title>
<polygon fill="none" stroke="black" stroke-dasharray="1,5" points="8,-32.8 8,-157.8 344,-157.8 344,-32.8 8,-32.8"/>
</g>
<g id="clust4" class="cluster">
<title>cluster_SuppliersPageModule_imports</title>
<polygon fill="none" stroke="black" points="136,-40.8 136,-92.8 336,-92.8 336,-40.8 136,-40.8"/>
</g>
<g id="clust2" class="cluster">
<title>cluster_SuppliersPageModule_declarations</title>
<polygon fill="none" stroke="black" points="16,-40.8 16,-92.8 128,-92.8 128,-40.8 16,-40.8"/>
</g>
<!-- SuppliersPage -->
<g id="node1" class="node">
<title>SuppliersPage</title>
<polygon fill="#ffffb3" stroke="black" points="120.1,-84.8 23.9,-84.8 23.9,-48.8 120.1,-48.8 120.1,-84.8"/>
<text text-anchor="middle" x="72" y="-62.6" font-family="Times,serif" font-size="14.00">SuppliersPage</text>
</g>
<!-- SuppliersPageModule -->
<g id="node2" class="node">
<title>SuppliersPageModule</title>
<polygon fill="#8dd3c7" stroke="black" points="230.66,-149.8 227.66,-153.8 206.66,-153.8 203.66,-149.8 91.34,-149.8 91.34,-113.8 230.66,-113.8 230.66,-149.8"/>
<text text-anchor="middle" x="161" y="-127.6" font-family="Times,serif" font-size="14.00">SuppliersPageModule</text>
</g>
<!-- SuppliersPage&#45;&gt;SuppliersPageModule -->
<g id="edge1" class="edge">
<title>SuppliersPage&#45;&gt;SuppliersPageModule</title>
<path fill="none" stroke="black" d="M105.61,-84.91C105.61,-84.91 105.61,-103.79 105.61,-103.79"/>
<polygon fill="black" stroke="black" points="102.11,-103.79 105.61,-113.79 109.11,-103.79 102.11,-103.79"/>
</g>
<!-- SuppliersPageRoutingModule -->
<g id="node3" class="node">
<title>SuppliersPageRoutingModule</title>
<polygon fill="#8dd3c7" stroke="black" points="328.27,-84.8 325.27,-88.8 304.27,-88.8 301.27,-84.8 143.73,-84.8 143.73,-48.8 328.27,-48.8 328.27,-84.8"/>
<text text-anchor="middle" x="236" y="-62.6" font-family="Times,serif" font-size="14.00">SuppliersPageRoutingModule</text>
</g>
<!-- SuppliersPageRoutingModule&#45;&gt;SuppliersPageModule -->
<g id="edge2" class="edge">
<title>SuppliersPageRoutingModule&#45;&gt;SuppliersPageModule</title>
<path fill="none" stroke="black" d="M187.22,-84.91C187.22,-84.91 187.22,-103.79 187.22,-103.79"/>
<polygon fill="black" stroke="black" points="183.72,-103.79 187.22,-113.79 190.72,-103.79 183.72,-103.79"/>
</g>
</g>
</svg>
