<?xml version="1.0" encoding="UTF-8" standalone="no"?>
<!DOCTYPE svg PUBLIC "-//W3C//DTD SVG 1.1//EN"
 "http://www.w3.org/Graphics/SVG/1.1/DTD/svg11.dtd">
<!-- Generated by graphviz version 3.0.0 (20220226.1711)
 -->
<!-- Title: dependencies Pages: 1 -->
<svg width="400pt" height="174pt"
 viewBox="0.00 0.00 400.00 173.80" xmlns="http://www.w3.org/2000/svg" xmlns:xlink="http://www.w3.org/1999/xlink">
<g id="graph0" class="graph" transform="scale(1 1) rotate(0) translate(4 169.8)">
<title>dependencies</title>
<polygon fill="white" stroke="transparent" points="-4,4 -4,-169.8 396,-169.8 396,4 -4,4"/>
<text text-anchor="middle" x="196" y="-8.2" font-family="sans-serif" font-size="14.00">dependencies</text>
<g id="clust1" class="cluster">
<title>cluster_SplashscreenPageModule</title>
<polygon fill="none" stroke="black" stroke-dasharray="1,5" points="8,-32.8 8,-157.8 384,-157.8 384,-32.8 8,-32.8"/>
</g>
<g id="clust2" class="cluster">
<title>cluster_SplashscreenPageModule_declarations</title>
<polygon fill="none" stroke="black" points="244,-40.8 244,-92.8 376,-92.8 376,-40.8 244,-40.8"/>
</g>
<g id="clust4" class="cluster">
<title>cluster_SplashscreenPageModule_imports</title>
<polygon fill="none" stroke="black" points="16,-40.8 16,-92.8 236,-92.8 236,-40.8 16,-40.8"/>
</g>
<!-- SplashscreenPage -->
<g id="node1" class="node">
<title>SplashscreenPage</title>
<polygon fill="#ffffb3" stroke="black" points="368.3,-84.8 251.7,-84.8 251.7,-48.8 368.3,-48.8 368.3,-84.8"/>
<text text-anchor="middle" x="310" y="-62.6" font-family="Times,serif" font-size="14.00">SplashscreenPage</text>
</g>
<!-- SplashscreenPageModule -->
<g id="node2" class="node">
<title>SplashscreenPageModule</title>
<polygon fill="#8dd3c7" stroke="black" points="290.86,-149.8 287.86,-153.8 266.86,-153.8 263.86,-149.8 131.14,-149.8 131.14,-113.8 290.86,-113.8 290.86,-149.8"/>
<text text-anchor="middle" x="211" y="-127.6" font-family="Times,serif" font-size="14.00">SplashscreenPageModule</text>
</g>
<!-- SplashscreenPage&#45;&gt;SplashscreenPageModule -->
<g id="edge1" class="edge">
<title>SplashscreenPage&#45;&gt;SplashscreenPageModule</title>
<path fill="none" stroke="black" d="M271.39,-84.91C271.39,-84.91 271.39,-103.79 271.39,-103.79"/>
<polygon fill="black" stroke="black" points="267.89,-103.79 271.39,-113.79 274.89,-103.79 267.89,-103.79"/>
</g>
<!-- SplashscreenPageRoutingModule -->
<g id="node3" class="node">
<title>SplashscreenPageRoutingModule</title>
<polygon fill="#8dd3c7" stroke="black" points="228.47,-84.8 225.47,-88.8 204.47,-88.8 201.47,-84.8 23.53,-84.8 23.53,-48.8 228.47,-48.8 228.47,-84.8"/>
<text text-anchor="middle" x="126" y="-62.6" font-family="Times,serif" font-size="14.00">SplashscreenPageRoutingModule</text>
</g>
<!-- SplashscreenPageRoutingModule&#45;&gt;SplashscreenPageModule -->
<g id="edge2" class="edge">
<title>SplashscreenPageRoutingModule&#45;&gt;SplashscreenPageModule</title>
<path fill="none" stroke="black" d="M179.78,-84.91C179.78,-84.91 179.78,-103.79 179.78,-103.79"/>
<polygon fill="black" stroke="black" points="176.28,-103.79 179.78,-113.79 183.28,-103.79 176.28,-103.79"/>
</g>
</g>
</svg>
