<?xml version="1.0" encoding="UTF-8" standalone="no"?>
<!DOCTYPE svg PUBLIC "-//W3C//DTD SVG 1.1//EN"
 "http://www.w3.org/Graphics/SVG/1.1/DTD/svg11.dtd">
<!-- Generated by graphviz version 3.0.0 (20220226.1711)
 -->
<!-- Title: dependencies Pages: 1 -->
<svg width="372pt" height="174pt"
 viewBox="0.00 0.00 372.00 173.80" xmlns="http://www.w3.org/2000/svg" xmlns:xlink="http://www.w3.org/1999/xlink">
<g id="graph0" class="graph" transform="scale(1 1) rotate(0) translate(4 169.8)">
<title>dependencies</title>
<polygon fill="white" stroke="transparent" points="-4,4 -4,-169.8 368,-169.8 368,4 -4,4"/>
<text text-anchor="middle" x="182" y="-8.2" font-family="sans-serif" font-size="14.00">dependencies</text>
<g id="clust1" class="cluster">
<title>cluster_DeveloperPageModule</title>
<polygon fill="none" stroke="black" stroke-dasharray="1,5" points="8,-32.8 8,-157.8 356,-157.8 356,-32.8 8,-32.8"/>
</g>
<g id="clust2" class="cluster">
<title>cluster_DeveloperPageModule_declarations</title>
<polygon fill="none" stroke="black" points="230,-40.8 230,-92.8 348,-92.8 348,-40.8 230,-40.8"/>
</g>
<g id="clust4" class="cluster">
<title>cluster_DeveloperPageModule_imports</title>
<polygon fill="none" stroke="black" points="16,-40.8 16,-92.8 222,-92.8 222,-40.8 16,-40.8"/>
</g>
<!-- DeveloperPage -->
<g id="node1" class="node">
<title>DeveloperPage</title>
<polygon fill="#ffffb3" stroke="black" points="339.52,-84.8 238.48,-84.8 238.48,-48.8 339.52,-48.8 339.52,-84.8"/>
<text text-anchor="middle" x="289" y="-62.6" font-family="Times,serif" font-size="14.00">DeveloperPage</text>
</g>
<!-- DeveloperPageModule -->
<g id="node2" class="node">
<title>DeveloperPageModule</title>
<polygon fill="#8dd3c7" stroke="black" points="269.57,-149.8 266.57,-153.8 245.57,-153.8 242.57,-149.8 124.43,-149.8 124.43,-113.8 269.57,-113.8 269.57,-149.8"/>
<text text-anchor="middle" x="197" y="-127.6" font-family="Times,serif" font-size="14.00">DeveloperPageModule</text>
</g>
<!-- DeveloperPage&#45;&gt;DeveloperPageModule -->
<g id="edge1" class="edge">
<title>DeveloperPage&#45;&gt;DeveloperPageModule</title>
<path fill="none" stroke="black" d="M253.89,-84.91C253.89,-84.91 253.89,-103.79 253.89,-103.79"/>
<polygon fill="black" stroke="black" points="250.39,-103.79 253.89,-113.79 257.39,-103.79 250.39,-103.79"/>
</g>
<!-- DeveloperPageRoutingModule -->
<g id="node3" class="node">
<title>DeveloperPageRoutingModule</title>
<polygon fill="#8dd3c7" stroke="black" points="214.19,-84.8 211.19,-88.8 190.19,-88.8 187.19,-84.8 23.81,-84.8 23.81,-48.8 214.19,-48.8 214.19,-84.8"/>
<text text-anchor="middle" x="119" y="-62.6" font-family="Times,serif" font-size="14.00">DeveloperPageRoutingModule</text>
</g>
<!-- DeveloperPageRoutingModule&#45;&gt;DeveloperPageModule -->
<g id="edge2" class="edge">
<title>DeveloperPageRoutingModule&#45;&gt;DeveloperPageModule</title>
<path fill="none" stroke="black" d="M169.28,-84.91C169.28,-84.91 169.28,-103.79 169.28,-103.79"/>
<polygon fill="black" stroke="black" points="165.78,-103.79 169.28,-113.79 172.78,-103.79 165.78,-103.79"/>
</g>
</g>
</svg>
