<?xml version="1.0" encoding="UTF-8" standalone="no"?>
<!DOCTYPE svg PUBLIC "-//W3C//DTD SVG 1.1//EN"
 "http://www.w3.org/Graphics/SVG/1.1/DTD/svg11.dtd">
<!-- Generated by graphviz version 3.0.0 (20220226.1711)
 -->
<!-- Title: dependencies Pages: 1 -->
<svg width="302pt" height="174pt"
 viewBox="0.00 0.00 302.00 173.80" xmlns="http://www.w3.org/2000/svg" xmlns:xlink="http://www.w3.org/1999/xlink">
<g id="graph0" class="graph" transform="scale(1 1) rotate(0) translate(4 169.8)">
<title>dependencies</title>
<polygon fill="white" stroke="transparent" points="-4,4 -4,-169.8 298,-169.8 298,4 -4,4"/>
<text text-anchor="middle" x="147" y="-8.2" font-family="sans-serif" font-size="14.00">dependencies</text>
<g id="clust1" class="cluster">
<title>cluster_InfoPageModule</title>
<polygon fill="none" stroke="black" stroke-dasharray="1,5" points="8,-32.8 8,-157.8 286,-157.8 286,-32.8 8,-32.8"/>
</g>
<g id="clust2" class="cluster">
<title>cluster_InfoPageModule_declarations</title>
<polygon fill="none" stroke="black" points="196,-40.8 196,-92.8 278,-92.8 278,-40.8 196,-40.8"/>
</g>
<g id="clust4" class="cluster">
<title>cluster_InfoPageModule_imports</title>
<polygon fill="none" stroke="black" points="16,-40.8 16,-92.8 188,-92.8 188,-40.8 16,-40.8"/>
</g>
<!-- InfoPage -->
<g id="node1" class="node">
<title>InfoPage</title>
<polygon fill="#ffffb3" stroke="black" points="270.04,-84.8 203.96,-84.8 203.96,-48.8 270.04,-48.8 270.04,-84.8"/>
<text text-anchor="middle" x="237" y="-62.6" font-family="Times,serif" font-size="14.00">InfoPage</text>
</g>
<!-- InfoPageModule -->
<g id="node2" class="node">
<title>InfoPageModule</title>
<polygon fill="#8dd3c7" stroke="black" points="217.09,-149.8 214.09,-153.8 193.09,-153.8 190.09,-149.8 106.91,-149.8 106.91,-113.8 217.09,-113.8 217.09,-149.8"/>
<text text-anchor="middle" x="162" y="-127.6" font-family="Times,serif" font-size="14.00">InfoPageModule</text>
</g>
<!-- InfoPage&#45;&gt;InfoPageModule -->
<g id="edge1" class="edge">
<title>InfoPage&#45;&gt;InfoPageModule</title>
<path fill="none" stroke="black" d="M210.39,-84.91C210.39,-84.91 210.39,-103.79 210.39,-103.79"/>
<polygon fill="black" stroke="black" points="206.89,-103.79 210.39,-113.79 213.89,-103.79 206.89,-103.79"/>
</g>
<!-- InfoPageRoutingModule -->
<g id="node3" class="node">
<title>InfoPageRoutingModule</title>
<polygon fill="#8dd3c7" stroke="black" points="179.71,-84.8 176.71,-88.8 155.71,-88.8 152.71,-84.8 24.29,-84.8 24.29,-48.8 179.71,-48.8 179.71,-84.8"/>
<text text-anchor="middle" x="102" y="-62.6" font-family="Times,serif" font-size="14.00">InfoPageRoutingModule</text>
</g>
<!-- InfoPageRoutingModule&#45;&gt;InfoPageModule -->
<g id="edge2" class="edge">
<title>InfoPageRoutingModule&#45;&gt;InfoPageModule</title>
<path fill="none" stroke="black" d="M143.28,-84.91C143.28,-84.91 143.28,-103.79 143.28,-103.79"/>
<polygon fill="black" stroke="black" points="139.78,-103.79 143.28,-113.79 146.78,-103.79 139.78,-103.79"/>
</g>
</g>
</svg>
