<?xml version="1.0" encoding="UTF-8" standalone="no"?>
<!DOCTYPE svg PUBLIC "-//W3C//DTD SVG 1.1//EN"
 "http://www.w3.org/Graphics/SVG/1.1/DTD/svg11.dtd">
<!-- Generated by graphviz version 3.0.0 (20220226.1711)
 -->
<!-- Title: dependencies Pages: 1 -->
<svg width="518pt" height="174pt"
 viewBox="0.00 0.00 518.00 173.80" xmlns="http://www.w3.org/2000/svg" xmlns:xlink="http://www.w3.org/1999/xlink">
<g id="graph0" class="graph" transform="scale(1 1) rotate(0) translate(4 169.8)">
<title>dependencies</title>
<polygon fill="white" stroke="transparent" points="-4,4 -4,-169.8 514,-169.8 514,4 -4,4"/>
<text text-anchor="middle" x="255" y="-8.2" font-family="sans-serif" font-size="14.00">dependencies</text>
<g id="clust1" class="cluster">
<title>cluster_ShowUserPageModule</title>
<polygon fill="none" stroke="black" stroke-dasharray="1,5" points="8,-32.8 8,-157.8 502,-157.8 502,-32.8 8,-32.8"/>
</g>
<g id="clust5" class="cluster">
<title>cluster_ShowUserPageModule_imports</title>
<polygon fill="none" stroke="black" points="288,-40.8 288,-92.8 494,-92.8 494,-40.8 288,-40.8"/>
</g>
<g id="clust2" class="cluster">
<title>cluster_ShowUserPageModule_declarations</title>
<polygon fill="none" stroke="black" points="16,-40.8 16,-92.8 280,-92.8 280,-40.8 16,-40.8"/>
</g>
<!-- LoadingComponent -->
<g id="node1" class="node">
<title>LoadingComponent</title>
<polygon fill="#ffffb3" stroke="black" points="271.99,-84.8 144.01,-84.8 144.01,-48.8 271.99,-48.8 271.99,-84.8"/>
<text text-anchor="middle" x="208" y="-62.6" font-family="Times,serif" font-size="14.00">LoadingComponent</text>
</g>
<!-- ShowUserPageModule -->
<g id="node3" class="node">
<title>ShowUserPageModule</title>
<polygon fill="#8dd3c7" stroke="black" points="280.6,-149.8 277.6,-153.8 256.6,-153.8 253.6,-149.8 135.4,-149.8 135.4,-113.8 280.6,-113.8 280.6,-149.8"/>
<text text-anchor="middle" x="208" y="-127.6" font-family="Times,serif" font-size="14.00">ShowUserPageModule</text>
</g>
<!-- LoadingComponent&#45;&gt;ShowUserPageModule -->
<g id="edge1" class="edge">
<title>LoadingComponent&#45;&gt;ShowUserPageModule</title>
<path fill="none" stroke="black" d="M208,-84.91C208,-84.91 208,-103.79 208,-103.79"/>
<polygon fill="black" stroke="black" points="204.5,-103.79 208,-113.79 211.5,-103.79 204.5,-103.79"/>
</g>
<!-- ShowUserPage -->
<g id="node2" class="node">
<title>ShowUserPage</title>
<polygon fill="#ffffb3" stroke="black" points="125.55,-84.8 24.45,-84.8 24.45,-48.8 125.55,-48.8 125.55,-84.8"/>
<text text-anchor="middle" x="75" y="-62.6" font-family="Times,serif" font-size="14.00">ShowUserPage</text>
</g>
<!-- ShowUserPage&#45;&gt;ShowUserPageModule -->
<g id="edge2" class="edge">
<title>ShowUserPage&#45;&gt;ShowUserPageModule</title>
<path fill="none" stroke="black" d="M125.68,-66.8C133.87,-66.8 139.73,-66.8 139.73,-66.8 139.73,-66.8 139.73,-103.69 139.73,-103.69"/>
<polygon fill="black" stroke="black" points="136.23,-103.69 139.73,-113.69 143.23,-103.69 136.23,-103.69"/>
</g>
<!-- ShowUserPageRoutingModule -->
<g id="node4" class="node">
<title>ShowUserPageRoutingModule</title>
<polygon fill="#8dd3c7" stroke="black" points="486.21,-84.8 483.21,-88.8 462.21,-88.8 459.21,-84.8 295.79,-84.8 295.79,-48.8 486.21,-48.8 486.21,-84.8"/>
<text text-anchor="middle" x="391" y="-62.6" font-family="Times,serif" font-size="14.00">ShowUserPageRoutingModule</text>
</g>
<!-- ShowUserPageRoutingModule&#45;&gt;ShowUserPageModule -->
<g id="edge3" class="edge">
<title>ShowUserPageRoutingModule&#45;&gt;ShowUserPageModule</title>
<path fill="none" stroke="black" d="M295.73,-66.8C284.13,-66.8 276.27,-66.8 276.27,-66.8 276.27,-66.8 276.27,-103.69 276.27,-103.69"/>
<polygon fill="black" stroke="black" points="272.77,-103.69 276.27,-113.69 279.77,-103.69 272.77,-103.69"/>
</g>
</g>
</svg>
