<?xml version="1.0" encoding="UTF-8" standalone="no"?>
<!DOCTYPE svg PUBLIC "-//W3C//DTD SVG 1.1//EN"
 "http://www.w3.org/Graphics/SVG/1.1/DTD/svg11.dtd">
<!-- Generated by graphviz version 3.0.0 (20220226.1711)
 -->
<!-- Title: dependencies Pages: 1 -->
<svg width="412pt" height="174pt"
 viewBox="0.00 0.00 412.00 173.80" xmlns="http://www.w3.org/2000/svg" xmlns:xlink="http://www.w3.org/1999/xlink">
<g id="graph0" class="graph" transform="scale(1 1) rotate(0) translate(4 169.8)">
<title>dependencies</title>
<polygon fill="white" stroke="transparent" points="-4,4 -4,-169.8 408,-169.8 408,4 -4,4"/>
<text text-anchor="middle" x="202" y="-8.2" font-family="sans-serif" font-size="14.00">dependencies</text>
<g id="clust1" class="cluster">
<title>cluster_PatchAccountPageModule</title>
<polygon fill="none" stroke="black" stroke-dasharray="1,5" points="8,-32.8 8,-157.8 396,-157.8 396,-32.8 8,-32.8"/>
</g>
<g id="clust2" class="cluster">
<title>cluster_PatchAccountPageModule_declarations</title>
<polygon fill="none" stroke="black" points="250,-40.8 250,-92.8 388,-92.8 388,-40.8 250,-40.8"/>
</g>
<g id="clust4" class="cluster">
<title>cluster_PatchAccountPageModule_imports</title>
<polygon fill="none" stroke="black" points="16,-40.8 16,-92.8 242,-92.8 242,-40.8 16,-40.8"/>
</g>
<!-- PatchAccountPage -->
<g id="node1" class="node">
<title>PatchAccountPage</title>
<polygon fill="#ffffb3" stroke="black" points="379.75,-84.8 258.25,-84.8 258.25,-48.8 379.75,-48.8 379.75,-84.8"/>
<text text-anchor="middle" x="319" y="-62.6" font-family="Times,serif" font-size="14.00">PatchAccountPage</text>
</g>
<!-- PatchAccountPageModule -->
<g id="node2" class="node">
<title>PatchAccountPageModule</title>
<polygon fill="#8dd3c7" stroke="black" points="299.8,-149.8 296.8,-153.8 275.8,-153.8 272.8,-149.8 134.2,-149.8 134.2,-113.8 299.8,-113.8 299.8,-149.8"/>
<text text-anchor="middle" x="217" y="-127.6" font-family="Times,serif" font-size="14.00">PatchAccountPageModule</text>
</g>
<!-- PatchAccountPage&#45;&gt;PatchAccountPageModule -->
<g id="edge1" class="edge">
<title>PatchAccountPage&#45;&gt;PatchAccountPageModule</title>
<path fill="none" stroke="black" d="M278.89,-84.91C278.89,-84.91 278.89,-103.79 278.89,-103.79"/>
<polygon fill="black" stroke="black" points="275.39,-103.79 278.89,-113.79 282.39,-103.79 275.39,-103.79"/>
</g>
<!-- PatchAccountPageRoutingModule -->
<g id="node3" class="node">
<title>PatchAccountPageRoutingModule</title>
<polygon fill="#8dd3c7" stroke="black" points="234.41,-84.8 231.41,-88.8 210.41,-88.8 207.41,-84.8 23.59,-84.8 23.59,-48.8 234.41,-48.8 234.41,-84.8"/>
<text text-anchor="middle" x="129" y="-62.6" font-family="Times,serif" font-size="14.00">PatchAccountPageRoutingModule</text>
</g>
<!-- PatchAccountPageRoutingModule&#45;&gt;PatchAccountPageModule -->
<g id="edge2" class="edge">
<title>PatchAccountPageRoutingModule&#45;&gt;PatchAccountPageModule</title>
<path fill="none" stroke="black" d="M184.28,-84.91C184.28,-84.91 184.28,-103.79 184.28,-103.79"/>
<polygon fill="black" stroke="black" points="180.78,-103.79 184.28,-113.79 187.78,-103.79 180.78,-103.79"/>
</g>
</g>
</svg>
