<?xml version="1.0" encoding="UTF-8" standalone="no"?>
<!DOCTYPE svg PUBLIC "-//W3C//DTD SVG 1.1//EN"
 "http://www.w3.org/Graphics/SVG/1.1/DTD/svg11.dtd">
<!-- Generated by graphviz version 3.0.0 (20220226.1711)
 -->
<!-- Title: dependencies Pages: 1 -->
<svg width="340pt" height="174pt"
 viewBox="0.00 0.00 340.00 173.80" xmlns="http://www.w3.org/2000/svg" xmlns:xlink="http://www.w3.org/1999/xlink">
<g id="graph0" class="graph" transform="scale(1 1) rotate(0) translate(4 169.8)">
<title>dependencies</title>
<polygon fill="white" stroke="transparent" points="-4,4 -4,-169.8 336,-169.8 336,4 -4,4"/>
<text text-anchor="middle" x="166" y="-8.2" font-family="sans-serif" font-size="14.00">dependencies</text>
<g id="clust1" class="cluster">
<title>cluster_SignUpPageModule</title>
<polygon fill="none" stroke="black" stroke-dasharray="1,5" points="8,-32.8 8,-157.8 324,-157.8 324,-32.8 8,-32.8"/>
</g>
<g id="clust4" class="cluster">
<title>cluster_SignUpPageModule_imports</title>
<polygon fill="none" stroke="black" points="126,-40.8 126,-92.8 316,-92.8 316,-40.8 126,-40.8"/>
</g>
<g id="clust2" class="cluster">
<title>cluster_SignUpPageModule_declarations</title>
<polygon fill="none" stroke="black" points="16,-40.8 16,-92.8 118,-92.8 118,-40.8 16,-40.8"/>
</g>
<!-- SignUpPage -->
<g id="node1" class="node">
<title>SignUpPage</title>
<polygon fill="#ffffb3" stroke="black" points="110,-84.8 24,-84.8 24,-48.8 110,-48.8 110,-84.8"/>
<text text-anchor="middle" x="67" y="-62.6" font-family="Times,serif" font-size="14.00">SignUpPage</text>
</g>
<!-- SignUpPageModule -->
<g id="node2" class="node">
<title>SignUpPageModule</title>
<polygon fill="#8dd3c7" stroke="black" points="215.55,-149.8 212.55,-153.8 191.55,-153.8 188.55,-149.8 86.45,-149.8 86.45,-113.8 215.55,-113.8 215.55,-149.8"/>
<text text-anchor="middle" x="151" y="-127.6" font-family="Times,serif" font-size="14.00">SignUpPageModule</text>
</g>
<!-- SignUpPage&#45;&gt;SignUpPageModule -->
<g id="edge1" class="edge">
<title>SignUpPage&#45;&gt;SignUpPageModule</title>
<path fill="none" stroke="black" d="M98.11,-84.91C98.11,-84.91 98.11,-103.79 98.11,-103.79"/>
<polygon fill="black" stroke="black" points="94.61,-103.79 98.11,-113.79 101.61,-103.79 94.61,-103.79"/>
</g>
<!-- SignUpPageRoutingModule -->
<g id="node3" class="node">
<title>SignUpPageRoutingModule</title>
<polygon fill="#8dd3c7" stroke="black" points="308.17,-84.8 305.17,-88.8 284.17,-88.8 281.17,-84.8 133.83,-84.8 133.83,-48.8 308.17,-48.8 308.17,-84.8"/>
<text text-anchor="middle" x="221" y="-62.6" font-family="Times,serif" font-size="14.00">SignUpPageRoutingModule</text>
</g>
<!-- SignUpPageRoutingModule&#45;&gt;SignUpPageModule -->
<g id="edge2" class="edge">
<title>SignUpPageRoutingModule&#45;&gt;SignUpPageModule</title>
<path fill="none" stroke="black" d="M174.72,-84.91C174.72,-84.91 174.72,-103.79 174.72,-103.79"/>
<polygon fill="black" stroke="black" points="171.22,-103.79 174.72,-113.79 178.22,-103.79 171.22,-103.79"/>
</g>
</g>
</svg>
