<?xml version="1.0" encoding="UTF-8" standalone="no"?>
<!DOCTYPE svg PUBLIC "-//W3C//DTD SVG 1.1//EN"
 "http://www.w3.org/Graphics/SVG/1.1/DTD/svg11.dtd">
<!-- Generated by graphviz version 3.0.0 (20220226.1711)
 -->
<!-- Title: dependencies Pages: 1 -->
<svg width="452pt" height="174pt"
 viewBox="0.00 0.00 452.00 173.80" xmlns="http://www.w3.org/2000/svg" xmlns:xlink="http://www.w3.org/1999/xlink">
<g id="graph0" class="graph" transform="scale(1 1) rotate(0) translate(4 169.8)">
<title>dependencies</title>
<polygon fill="white" stroke="transparent" points="-4,4 -4,-169.8 448,-169.8 448,4 -4,4"/>
<text text-anchor="middle" x="222" y="-8.2" font-family="sans-serif" font-size="14.00">dependencies</text>
<g id="clust1" class="cluster">
<title>cluster_InsertConfermentPageModule</title>
<polygon fill="none" stroke="black" stroke-dasharray="1,5" points="8,-32.8 8,-157.8 436,-157.8 436,-32.8 8,-32.8"/>
</g>
<g id="clust2" class="cluster">
<title>cluster_InsertConfermentPageModule_declarations</title>
<polygon fill="none" stroke="black" points="270,-40.8 270,-92.8 428,-92.8 428,-40.8 270,-40.8"/>
</g>
<g id="clust4" class="cluster">
<title>cluster_InsertConfermentPageModule_imports</title>
<polygon fill="none" stroke="black" points="16,-40.8 16,-92.8 262,-92.8 262,-40.8 16,-40.8"/>
</g>
<!-- InsertConfermentPage -->
<g id="node1" class="node">
<title>InsertConfermentPage</title>
<polygon fill="#ffffb3" stroke="black" points="419.96,-84.8 278.04,-84.8 278.04,-48.8 419.96,-48.8 419.96,-84.8"/>
<text text-anchor="middle" x="349" y="-62.6" font-family="Times,serif" font-size="14.00">InsertConfermentPage</text>
</g>
<!-- InsertConfermentPageModule -->
<g id="node2" class="node">
<title>InsertConfermentPageModule</title>
<polygon fill="#8dd3c7" stroke="black" points="329.51,-149.8 326.51,-153.8 305.51,-153.8 302.51,-149.8 144.49,-149.8 144.49,-113.8 329.51,-113.8 329.51,-149.8"/>
<text text-anchor="middle" x="237" y="-127.6" font-family="Times,serif" font-size="14.00">InsertConfermentPageModule</text>
</g>
<!-- InsertConfermentPage&#45;&gt;InsertConfermentPageModule -->
<g id="edge1" class="edge">
<title>InsertConfermentPage&#45;&gt;InsertConfermentPageModule</title>
<path fill="none" stroke="black" d="M303.89,-84.91C303.89,-84.91 303.89,-103.79 303.89,-103.79"/>
<polygon fill="black" stroke="black" points="300.39,-103.79 303.89,-113.79 307.39,-103.79 300.39,-103.79"/>
</g>
<!-- InsertConfermentPageRoutingModule -->
<g id="node3" class="node">
<title>InsertConfermentPageRoutingModule</title>
<polygon fill="#8dd3c7" stroke="black" points="254.13,-84.8 251.13,-88.8 230.13,-88.8 227.13,-84.8 23.87,-84.8 23.87,-48.8 254.13,-48.8 254.13,-84.8"/>
<text text-anchor="middle" x="139" y="-62.6" font-family="Times,serif" font-size="14.00">InsertConfermentPageRoutingModule</text>
</g>
<!-- InsertConfermentPageRoutingModule&#45;&gt;InsertConfermentPageModule -->
<g id="edge2" class="edge">
<title>InsertConfermentPageRoutingModule&#45;&gt;InsertConfermentPageModule</title>
<path fill="none" stroke="black" d="M199.28,-84.91C199.28,-84.91 199.28,-103.79 199.28,-103.79"/>
<polygon fill="black" stroke="black" points="195.78,-103.79 199.28,-113.79 202.78,-103.79 195.78,-103.79"/>
</g>
</g>
</svg>
